{"title":"Fading.Gigolo.2013.BRRip.720p.x264.AAC-PRiSTiNE [P2PDL]","uid":10667903,"size":593343373,"categoryP":"video","categoryS":"hd___movies","magnet":"?xt=urn:btih:47290820071c917ff5bd56c4fbc3e850ad339aa9&amp;dn=Fading.Gigolo.2013.BRRip.720p.x264.AAC-PRiSTiNE+%5BP2PDL%5D&amp;tr=udp%3A%2F%2Ftracker.openbittorrent.com%3A80&amp;tr=udp%3A%2F%2Fopen.demonii.com%3A1337&amp;tr=udp%3A%2F%2Ftracker.coppersurfer.tk%3A6969&amp;tr=udp%3A%2F%2Fexodus.desync.com%3A6969","seeders":3,"leechers":1,"uploader":"ValidusVyto","files":-1,"time":1406833374,"description":" ___    ___       ___   _____    _   _  ___   \n(  _` |  _`  _ (  _`(_   _)_ ( ) ( )(  _` \n| |_) )| (_) )(_)| (_(_) | | (_)| `| || (_(_)\n| ,__/'| ,  / | |`__   | | | || , ` ||  _)_ \n| |    | |  | |( )_) | | | | || |` || (_( )\n(_)    (_) (_)(_)`____) (_) (_)(_) (_)(____/' \n\n\n\nFading.Gigolo.2013.BRRip.720p.x264.AAC-PRiSTiNE\n\n\nGenre: Comedy &lt;a href=&quot;\nhttp://www.imdb.com/title/tt2258345/&quot; rel=&quot;nofollow&quot; target=&quot;_NEW&quot;&gt;\nhttp://www.imdb.com/title/tt2258345/&lt;/a&gt;\n\nGeneral\nFormat                                   : MPEG-4\nFile size                                : 557 MiB\nDuration                                 : 1h 29mn\nOverall bit rate                         : 865 Kbps\n\nVideo\nFormat                                   : AVC\nDuration                                 : 1h 29mn\nBit rate                                 : 780 Kbps\nWidth                                    : 1 280 pixels\nHeight                                   : 688 pixels\nDisplay aspect ratio                     : 1.85:1\nMinimum frame rate                       : 23.974 fps\nBit depth                                : 8 bits\nStream size                              : 502 MiB (90%)\nWriting library                          : x264 core 142 r2431 ac76440\n\nAudio\nFormat                                   : AAC\nDuration                                 : 1h 29mn\nBit rate mode                            : Variable\nBit rate                                 : 80.0 Kbps\nChannel(s)                               : 2 channels\nChannel positions                        : Front: L R\nSampling rate                            : 48.0 KHz\nStream size                              : 51.5 MiB (9%)\nLanguage                                 : English\n\nSubtitle                                 : Yes (English)\n &lt;a href=&quot;\nhttp://someimage.com/twWNfJC&quot; rel=&quot;nofollow&quot; target=&quot;_NEW&quot;&gt;\nhttp://someimage.com/twWNfJC&lt;/a&gt; &lt;a href=&quot;\nhttp://someimage.com/c7rTl5L&quot; rel=&quot;nofollow&quot; target=&quot;_NEW&quot;&gt;\nhttp://someimage.com/c7rTl5L&lt;/a&gt; &lt;a href=&quot;\nhttp://someimage.com/kgNIp0W&quot; rel=&quot;nofollow&quot; target=&quot;_NEW&quot;&gt;\nhttp://someimage.com/kgNIp0W&lt;/a&gt; &lt;a href=&quot;\nhttp://someimage.com/Kb1h1Lo&quot; rel=&quot;nofollow&quot; target=&quot;_NEW&quot;&gt;\nhttp://someimage.com/Kb1h1Lo&lt;/a&gt; &lt;a href=&quot;\nhttp://someimage.com/A6ndn0g&quot; rel=&quot;nofollow&quot; target=&quot;_NEW&quot;&gt;\nhttp://someimage.com/A6ndn0g&lt;/a&gt; &lt;a href=&quot;\nhttp://someimage.com/QxnxpmK&quot; rel=&quot;nofollow&quot; target=&quot;_NEW&quot;&gt;\nhttp://someimage.com/QxnxpmK&lt;/a&gt; &lt;a href=&quot;\nhttp://someimage.com/4oVmqSe&quot; rel=&quot;nofollow&quot; target=&quot;_NEW&quot;&gt;\nhttp://someimage.com/4oVmqSe&lt;/a&gt; &lt;a href=&quot;\nhttp://someimage.com/1EB5SP8&quot; rel=&quot;nofollow&quot; target=&quot;_NEW&quot;&gt;\nhttp://someimage.com/1EB5SP8&lt;/a&gt;\n\n----------------------------------------------------------------------------------------------------\n\n\nRecommend to you to use latest version of VLC player. Install K-Lite Codec Pack or shark007 codecs\nin case of any kind of problem in playback (For non-VLC Media Player users). Alternatively, install\nCore AVC codecs, the fastest decoder that there is coupled with Community Center Codec Pack and play\non Windows Media Player Classic. Check sample to be sure.\n\nEncoder Notes: Looking For Early Access To Anything You Can Provide DVDScr, R5, DVDR, BluRay, Direct\nAudio, Music Releases and Seedboxes. We require dedicated servers, so as to do more \nand fast releases of movies.","torrent":{"xt":"urn:btih:47290820071c917ff5bd56c4fbc3e850ad339aa9","amp;dn":"Fading.Gigolo.2013.BRRip.720p.x264.AAC-PRiSTiNE+%5BP2PDL%5D","amp;tr":["udp%3A%2F%2Ftracker.openbittorrent.com%3A80","udp%3A%2F%2Fopen.demonii.com%3A1337","udp%3A%2F%2Ftracker.coppersurfer.tk%3A6969","udp%3A%2F%2Fexodus.desync.com%3A6969"],"infoHash":"47290820071c917ff5bd56c4fbc3e850ad339aa9","infoHashBuffer":{"type":"Buffer","data":[71,41,8,32,7,28,145,127,245,189,86,196,251,195,232,80,173,51,154,169]},"announce":[],"urlList":[]}}